# File produced by Open Asset Import Library (http://www.assimp.sf.net)
# (assimp v3.1.243586452)

mtllib Frame.mtl

# vertex positions
v -7.396376 -0.261593 -9.920145
v -7.396376 0.261593 -9.920145
v -7.396376 0.261630 3.801800
v -7.396376 -0.261593 3.801763
v -7.157969 0.261593 4.040244
v 3.591431 0.261557 4.043546
v 3.591469 -0.261593 4.043546
v -7.157969 -0.261593 4.040244
v -7.157969 -0.261593 -10.158550
v 3.591469 -0.261593 -10.158550
v 3.591469 0.261593 -10.158550
v -7.157969 0.261593 -10.158550
v 3.829875 -0.261593 -9.920145
v 3.829875 -0.261557 3.805176
v 3.829875 0.261593 3.805212
v 3.829875 0.261593 -9.920145
v -7.396376 -0.500000 4.278577
v 3.829875 -0.500000 4.282025
v -7.634782 -0.500000 4.040170
v -7.634782 -0.500000 -10.158550
v -7.396376 0.500000 4.278577
v 3.829875 0.500000 4.282025
v -7.634782 0.500000 4.040170
v -7.634782 0.500000 -10.158550
v -8.157969 0.500000 4.040170
v -8.396376 0.261593 4.040170
v -8.396376 0.261593 4.836284
v -8.157969 0.500000 4.836284
v -8.157969 0.500000 -10.158550
v -8.396376 0.261593 -10.158550
v -8.157969 0.500000 -10.873867
v -8.396376 0.261593 -10.873867
v -7.396376 0.500000 -10.396957
v 3.829875 0.500000 -10.396957
v -7.396376 -0.500000 -10.396957
v 3.829875 -0.500000 -10.396957
v -8.396376 -0.261593 4.040170
v -8.157969 -0.500000 4.040170
v -8.157969 -0.500000 4.836284
v -8.396376 -0.261593 4.836284
v -8.396376 -0.261593 -10.158550
v -8.157969 -0.500000 -10.158550
v -8.396376 -0.261593 -10.873867
v -8.157969 -0.500000 -10.873867
v -8.157969 0.261593 -11.112272
v -8.157969 -0.261593 -11.112272
v -7.396376 0.500000 -10.873867
v -7.396376 0.261593 -11.112272
v 3.829875 0.500000 -10.873867
v 3.829875 0.261593 -11.112272
v -7.396376 -0.261593 -11.112272
v -7.396376 -0.500000 -10.873867
v 3.829875 -0.261593 -11.112272
v 3.829875 -0.500000 -10.873867
v 4.068281 0.500000 -10.158550
v 4.068281 0.500000 4.042816
v 4.068281 -0.500000 -10.158550
v 4.068281 -0.500000 4.042816
v 4.615744 -0.261593 -11.112272
v 4.615744 -0.500000 -10.873867
v 4.615744 0.500000 -10.873867
v 4.615744 0.261593 -11.112272
v 4.854151 -0.261593 -10.873867
v 4.854151 0.261593 -10.873867
v 4.854151 -0.261593 -10.158550
v 4.615744 -0.500000 -10.158550
v 4.854151 -0.261593 4.040170
v 4.615745 -0.500000 4.040973
v 4.615744 0.500000 -10.158550
v 4.854151 0.261593 -10.158550
v 4.615745 0.500000 4.040973
v 4.854151 0.261593 4.040170
v 4.854151 -0.261593 4.836284
v 4.615744 -0.500000 4.836284
v 4.615744 0.500000 4.836284
v 4.854151 0.261593 4.836284
v -8.157969 -0.261593 5.074691
v -8.157969 0.261593 5.074691
v -7.396376 -0.500000 4.836284
v -7.396376 -0.261593 5.074691
v 3.829875 -0.500000 4.836284
v 3.829875 -0.261593 5.074691
v -7.396376 0.261593 5.074691
v -7.396376 0.500000 4.836284
v 3.829875 0.261593 5.074691
v 3.829875 0.500000 4.836284
v 4.615744 0.261593 5.074691
v 4.615744 -0.261593 5.074691

# UV coordinates
vt 0.000000 0.000000
vt 0.093461 0.528738
vt 0.904704 0.528736
vt 0.904707 0.489254
vt 0.093461 0.489254
vt 0.075469 0.471262
vt 0.922699 0.471262
vt 0.936089 0.507612
vt 0.935935 0.487054
vt 0.985118 0.486753
vt 0.985272 0.507311
vt 0.058919 0.512977
vt 0.058765 0.492419
vt 0.014728 0.513247
vt 0.014574 0.492689
vt 0.000000 0.307567
vt 0.017992 0.307567
vt 0.017992 0.268083
vt 0.000000 0.268083
vt 1.000000 0.381391
vt 0.999936 0.407284
vt 0.941410 0.407145
vt 0.941474 0.381252
vt 0.078712 0.405093
vt 0.078776 0.379201
vt 0.018321 0.404950
vt 0.018385 0.379057
vt 1.000000 0.268083
vt 0.982008 0.268083
vt 0.982008 0.307567
vt 1.000000 0.307567
vt 0.985417 0.603426
vt 0.985052 0.624294
vt 0.940200 0.623654
vt 0.940565 0.602786
vt 0.049867 0.610945
vt 0.050283 0.590077
vt 0.000000 0.610233
vt 0.000365 0.589365
vt 0.000000 0.480258
vt 0.017992 0.480258
vt 0.017992 0.519742
vt 0.000000 0.519742
vt 0.000000 0.501917
vt 0.000704 0.476378
vt 0.059233 0.477672
vt 0.058530 0.503211
vt 0.921987 0.496748
vt 0.921283 0.522287
vt 0.982382 0.498083
vt 0.981678 0.523623
vt 1.000000 0.519742
vt 0.982008 0.519742
vt 0.982008 0.480258
vt 1.000000 0.480258
vt 0.075469 0.480258
vt 0.075469 0.519742
vt 0.093457 0.050675
vt 0.126759 0.050675
vt 0.126759 0.954468
vt 0.093457 0.954468
vt 0.075469 0.307567
vt 0.075469 0.268083
vt 0.141935 0.969643
vt 0.141935 1.000000
vt 0.922699 0.307567
vt 0.922699 0.268083
vt 0.856520 0.969643
vt 0.856520 1.000000
vt 0.871696 0.954468
vt 0.906543 0.954468
vt 0.871696 0.050507
vt 0.906543 0.050624
vt 0.856520 0.035280
vt 0.141935 0.035500
vt 0.141935 0.000000
vt 0.856520 0.000000
vt 0.922699 0.480258
vt 0.922699 0.519742
vt 0.000000 0.501382
vt -0.000000 0.391494
vt 1.000000 0.495265
vt 1.000000 0.509034
vt 0.906543 1.000000
vt 0.093457 1.000000
vt 0.093457 0.000000
vt 0.906543 0.000000

# vertex normals
vn 1.000000 0.000000 0.000000
vn 0.000307 0.000000 -1.000000
vn 0.000307 0.000000 -1.000000
vn 0.000307 0.000000 -1.000000
vn 0.000000 0.000000 1.000000
vn -1.000000 0.000000 0.000000
vn 0.024143 -0.718766 -0.694833
vn 0.010985 -0.712429 -0.701658
vn 0.000217 -0.707107 -0.707107
vn 0.000217 -0.707107 -0.707107
vn 0.702810 -0.711327 -0.008518
vn 0.697392 -0.716437 -0.019048
vn 0.707107 -0.707107 0.000000
vn 0.707107 -0.707107 0.000000
vn 0.707189 0.000025 -0.707025
vn 0.707188 0.000025 -0.707025
vn 0.010984 0.712402 -0.701685
vn 0.024142 0.718741 -0.694859
vn 0.000218 0.707080 -0.707134
vn 0.000218 0.707080 -0.707134
vn 0.697367 0.716461 -0.019045
vn 0.702783 0.711354 -0.008519
vn 0.702782 0.711354 0.008518
vn 0.697364 0.716464 0.019048
vn -0.707107 0.707106 0.000000
vn -0.707107 0.707106 0.000000
vn -0.707107 0.707106 0.000000
vn 0.023935 0.718771 0.694835
vn 0.010770 0.712431 0.701659
vn -0.010770 0.712431 0.701659
vn -0.023935 0.718771 0.694835
vn 0.707104 0.000000 0.707110
vn 0.000000 -0.707107 0.707106
vn 0.000000 -0.707107 0.707106
vn -0.707107 -0.707106 0.000000
vn -0.707107 -0.707106 0.000000
vn -0.707107 -0.707106 0.000000
vn -0.707106 0.000000 -0.707108
vn 0.000000 0.707105 -0.707109
vn 0.000000 0.707105 -0.707109
vn 0.000000 -0.707105 -0.707109
vn 0.000000 -0.707105 -0.707109
vn -0.707108 0.707106 0.000000
vn -0.702810 0.711326 -0.008532
vn -0.697424 0.716406 -0.019014
vn -0.707104 0.000000 0.707109
vn -0.707135 -0.707079 0.000001
vn -0.707134 -0.707079 0.000001
vn -0.697449 -0.716382 -0.019016
vn -0.702837 -0.711300 -0.008530
vn 0.000000 -0.707105 -0.707109
vn 0.000000 0.707105 -0.707109
vn 0.707104 0.000000 -0.707109
vn 0.707105 -0.707108 0.000000
vn 0.707106 -0.707108 -0.000000
vn 0.707106 -0.707108 -0.000000
vn 0.707106 -0.707108 -0.000000
vn 0.707106 -0.707107 0.000000
vn 0.707105 0.707108 0.000000
vn 0.707106 0.707108 -0.000000
vn 0.707106 0.707108 -0.000000
vn 0.707106 0.707107 0.000000
vn 0.707106 0.707108 -0.000000
vn -0.706998 0.000000 -0.707215
vn -0.706998 0.000000 -0.707215
vn 0.707108 -0.707106 0.000000
vn 0.707108 -0.707106 0.000000
vn 0.707108 0.707106 0.000000
vn 0.707108 0.707106 0.000000
vn -0.707107 0.000000 0.707106
vn 0.000000 -0.707107 0.707107
vn 0.000000 0.707107 0.707107
vn 0.000000 0.707107 0.707107
vn 0.000000 -0.707107 0.707107
vn 0.707106 0.000000 0.707107
vn 0.000000 1.000000 0.000000
vn 0.000000 0.000000 -1.000000
vn 0.000000 -1.000000 0.000000
vn 0.408248 -0.816496 0.408249
vn 0.408248 -0.816496 0.408249
vn -0.577348 0.577350 -0.577353
vn -0.577348 0.577350 -0.577353
vn -0.577348 -0.577350 -0.577353
vn -0.577348 -0.577350 -0.577353
vn -0.408249 0.816496 0.408249
vn -0.408249 0.816496 0.408249
vn -0.408249 -0.816496 0.408249
vn -0.408249 -0.816496 0.408249
vn -0.408249 -0.816496 0.408249
vn 0.577346 -0.577351 -0.577354
vn 0.577346 -0.577351 -0.577354
vn 0.577346 -0.577351 -0.577354
vn 0.577346 0.577351 -0.577354
vn 0.577346 0.577351 -0.577354
vn 0.577346 0.577351 -0.577354
vn -0.408796 0.816277 -0.408140
vn -0.408796 0.816277 -0.408140
vn -0.408766 -0.816276 -0.408172
vn -0.408766 -0.816276 -0.408172
vn -0.577351 -0.577350 0.577350
vn -0.577351 -0.577350 0.577350
vn -0.577351 0.577350 0.577350
vn -0.577351 0.577350 0.577350
vn 0.577351 0.577349 0.577351
vn 0.577351 0.577349 0.577351
vn 0.577351 -0.577349 0.577351
vn 0.577351 -0.577349 0.577351

# Mesh
g pCube1
usemtl lambert2
f 4/1/1 1/1/1 2/1/1
f 2/1/1 3/1/1 4/1/1
f 8/5/4 5/2/2 6/3/3
f 6/3/3 7/4/3 8/5/4
f 12/1/5 9/1/5 10/1/5
f 10/1/5 11/1/5 12/1/5
f 16/1/6 13/1/6 14/1/6
f 14/1/6 15/1/6 16/1/6
f 18/7/10 17/6/7 8/5/8
f 8/5/8 7/4/9 18/7/10
f 1/1/14 4/1/11 19/1/12
f 19/1/12 20/1/13 1/1/14
f 5/1/16 8/1/15 4/1/16
f 4/1/16 3/1/16 5/1/16
f 6/1/20 5/1/17 21/1/18
f 21/1/18 22/1/19 6/1/20
f 24/1/24 23/1/21 3/1/22
f 3/1/22 2/1/23 24/1/24
f 28/11/26 25/8/25 26/9/25
f 26/9/25 27/10/26 28/11/26
f 30/13/27 26/9/25 25/8/25
f 25/8/25 29/12/27 30/13/27
f 32/15/27 30/13/27 29/12/27
f 29/12/27 31/14/27 32/15/27
f 34/1/31 33/1/28 12/1/29
f 12/1/29 11/1/30 34/1/31
f 9/1/32 12/1/32 2/1/32
f 2/1/32 1/1/32 9/1/32
f 10/1/33 9/1/33 35/1/34
f 35/1/34 36/1/34 10/1/33
f 40/1/36 37/1/35 38/1/35
f 38/1/35 39/1/36 40/1/36
f 42/1/37 38/1/35 37/1/35
f 37/1/35 41/1/37 42/1/37
f 44/1/37 42/1/37 41/1/37
f 41/1/37 43/1/37 44/1/37
f 43/19/38 32/16/38 45/17/38
f 45/17/38 46/18/38 43/19/38
f 48/23/39 45/20/39 31/21/39
f 31/21/39 47/22/39 48/23/39
f 50/25/40 48/23/39 47/22/39
f 47/22/39 49/24/40 50/25/40
f 52/1/41 44/1/41 46/1/41
f 46/1/41 51/1/41 52/1/41
f 54/1/42 52/1/41 51/1/41
f 51/1/41 53/1/42 54/1/42
f 56/1/45 55/1/43 16/1/43
f 16/1/43 15/1/44 56/1/45
f 13/1/46 16/1/46 11/1/46
f 11/1/46 10/1/46 13/1/46
f 14/1/50 13/1/47 57/1/48
f 57/1/48 58/1/49 14/1/50
f 60/1/51 54/1/42 53/1/42
f 53/1/42 59/1/51 60/1/51
f 62/27/52 50/25/40 49/24/40
f 49/24/40 61/26/52 62/27/52
f 64/31/53 63/28/53 59/29/53
f 59/29/53 62/30/53 64/31/53
f 66/1/56 60/1/54 63/1/54
f 63/1/54 65/1/55 66/1/56
f 68/1/58 66/1/56 65/1/55
f 65/1/55 67/1/57 68/1/58
f 70/35/61 64/32/59 61/33/59
f 61/33/59 69/34/60 70/35/61
f 72/37/63 70/35/61 69/34/60
f 69/34/60 71/36/62 72/37/63
f 7/1/64 6/1/64 15/1/65
f 15/1/65 14/1/65 7/1/64
f 74/1/67 68/1/58 67/1/57
f 67/1/57 73/1/66 74/1/67
f 76/39/69 72/37/63 71/36/62
f 71/36/62 75/38/68 76/39/69
f 27/43/70 40/40/70 77/41/70
f 77/41/70 78/42/70 27/43/70
f 80/1/71 77/1/71 39/1/71
f 39/1/71 79/1/71 80/1/71
f 82/1/71 80/1/71 79/1/71
f 79/1/71 81/1/71 82/1/71
f 84/47/72 28/44/72 78/45/72
f 78/45/72 83/46/72 84/47/72
f 86/49/72 84/47/72 83/46/72
f 83/46/72 85/48/72 86/49/72
f 75/51/73 86/49/72 85/48/72
f 85/48/72 87/50/73 75/51/73
f 88/1/74 82/1/71 81/1/71
f 81/1/71 74/1/74 88/1/74
f 73/55/75 76/52/75 87/53/75
f 87/53/75 88/54/75 73/55/75
f 78/42/5 77/41/5 80/56/5
f 80/56/5 83/57/5 78/42/5
f 29/61/76 25/58/76 23/59/76
f 23/59/76 24/60/76 29/61/76
f 46/18/77 45/17/77 48/62/77
f 48/62/77 51/63/77 46/18/77
f 38/1/78 42/1/78 20/1/78
f 20/1/78 19/1/78 38/1/78
f 30/1/6 41/1/6 37/1/6
f 37/1/6 26/1/6 30/1/6
f 47/65/76 29/61/76 24/60/76
f 24/60/76 33/64/76 47/65/76
f 64/1/1 70/1/1 65/1/1
f 65/1/1 63/1/1 64/1/1
f 43/1/6 41/1/6 30/1/6
f 30/1/6 32/1/6 43/1/6
f 54/1/78 36/1/78 35/1/78
f 35/1/78 52/1/78 54/1/78
f 53/67/77 51/63/77 48/62/77
f 48/62/77 50/66/77 53/67/77
f 49/69/76 47/65/76 33/64/76
f 33/64/76 34/68/76 49/69/76
f 59/29/77 53/67/77 50/66/77
f 50/66/77 62/30/77 59/29/77
f 69/71/76 49/69/76 34/68/76
f 34/68/76 55/70/76 69/71/76
f 68/1/78 58/1/78 57/1/78
f 57/1/78 66/1/78 68/1/78
f 67/1/1 65/1/1 70/1/1
f 70/1/1 72/1/1 67/1/1
f 71/73/76 69/71/76 55/70/76
f 55/70/76 56/72/76 71/73/76
f 38/1/78 79/1/78 39/1/78
f 73/1/1 67/1/1 72/1/1
f 72/1/1 76/1/1 73/1/1
f 27/1/6 26/1/6 37/1/6
f 37/1/6 40/1/6 27/1/6
f 86/77/76 22/74/76 21/75/76
f 21/75/76 84/76/76 86/77/76
f 85/79/5 83/57/5 80/56/5
f 80/56/5 82/78/5 85/79/5
f 81/1/78 79/1/78 17/1/78
f 17/1/78 18/1/78 81/1/78
f 87/53/5 85/79/5 82/78/5
f 82/78/5 88/54/5 87/53/5
f 81/1/78 68/1/78 74/1/78
f 84/76/76 21/75/76 23/59/76
f 23/59/76 25/58/76 84/76/76
f 52/1/78 35/1/78 20/1/78
f 20/1/78 42/1/78 52/1/78
f 66/1/78 57/1/78 36/1/78
f 36/1/78 54/1/78 66/1/78
f 71/73/76 56/72/76 22/74/76
f 22/74/76 86/77/76 71/73/76
f 4/1/11 8/1/8 17/1/7
f 17/1/7 19/1/12 4/1/11
f 21/1/18 5/1/17 3/1/22
f 3/1/22 23/1/21 21/1/18
f 2/1/23 12/1/29 33/1/28
f 33/1/28 24/1/24 2/1/23
f 35/1/79 9/1/79 1/1/80
f 1/1/80 20/1/79 35/1/79
f 32/15/81 31/14/82 45/80/81
f 46/1/83 44/1/84 43/1/83
f 11/1/30 16/1/85 55/1/86
f 55/1/86 34/1/31 11/1/30
f 57/1/88 13/1/87 10/1/88
f 10/1/88 36/1/89 57/1/88
f 63/1/90 60/1/91 59/1/92
f 64/81/93 62/27/94 61/26/95
f 6/1/97 22/1/96 56/1/45
f 56/1/45 15/1/44 6/1/97
f 58/1/49 18/1/98 7/1/99
f 7/1/99 14/1/50 58/1/49
f 40/1/100 39/1/101 77/1/101
f 78/82/102 28/11/102 27/10/103
f 76/83/104 75/51/105 87/50/105
f 73/1/106 88/1/107 74/1/107
f 49/69/76 69/71/76 61/84/76
f 29/61/76 47/65/76 31/85/76
f 84/76/76 25/58/76 28/86/76
f 71/73/76 86/77/76 75/87/76
f 68/1/78 81/1/78 18/1/78
f 18/1/78 58/1/78 68/1/78
f 79/1/78 38/1/78 19/1/78
f 19/1/78 17/1/78 79/1/78
f 52/1/78 42/1/78 44/1/78
f 66/1/78 54/1/78 60/1/78
